<?xml version="1.0" encoding="utf-8"?>
<svg viewBox="203.437 90.873 111.713 112.038" xmlns="http://www.w3.org/2000/svg">
  <g transform="matrix(0.086192, 0, 0, 0.086192, 213.700989, 90.330612)" style="">
    <path d="m548.02 716.55c-54.683-0.4692-109.22-3.5395-163.54-9.9353-34.885-4.1078-69.757-8.3763-104.54-13.226-18.834-2.6255-36.614-9.7598-54.861-14.893-25.132-7.07-50.443-13.464-74.509-23.952-41.556-18.109-75.407-46.298-104.28-80.508-23.102-27.371-25.364-61.374-8.1404-92.785 3.7724-6.8798 8.3188-13.235 12.909-19.588 14.138-19.568 34.765-27.224 57.28-31.019 27.314-4.6035 54.466-3.0052 81.201 4.1563 4.2839 1.1475 5.3325 0.171 6.1405-3.836 5.4836-27.194 7.6339-54.733 8.9061-82.37 1.4096-30.622 1.43-61.314 4.0842-91.869 3.8864-44.74 16.386-86.286 46.633-120.88 23.992-27.442 54.504-44.979 88.289-57.332 37.887-13.852 77.173-21.536 117.15-26.134 34.502-3.969 69.11-5.1811 103.79-3.8928 56.366 2.094 111.75 9.8873 164.85 29.96 26.199 9.9047 50.806 22.739 71.403 42.106 25.426 23.908 40.22 53.895 48.855 87.272 7.1656 27.698 10.063 56.005 11.937 84.443 2.7929 42.39 3.722 84.884 7.1274 127.24 0.8842 10.999 0.7661 10.885 11.867 10.295 10.191-0.5416 20.018-3.5167 30.124-4.3714 51.248-4.3346 91.842 13.741 121.64 56.456 17.3 24.796 16.419 50.223 5.6155 76.255-12.864 30.996-35.565 53.964-63.017 72.509-30.815 20.816-64.979 34.217-100.37 44.762-42.526 12.67-86.056 20.612-129.89 27.029-33.451 4.8977-66.971 9.177-100.74 11.387-31.943 2.0907-63.905 3.0071-95.912 2.7225z"/>
    <path d="M 720.277 1257.871 C 672.23 1257.087 624.984 1251.124 579.297 1235.513 C 558.397 1228.371 538.558 1219.1 521.085 1205.259 C 516.901 1201.944 511.773 1203.402 507.081 1203.927 C 501.927 1204.504 497.082 1206.467 492.577 1209.058 C 488.972 1211.131 485.135 1213.013 482.024 1215.701 C 458.679 1235.869 430.309 1243.898 400.948 1249.403 C 336.698 1261.451 272.438 1261.699 208.298 1248.592 C 179.117 1242.629 151.016 1233.528 125.558 1217.533 C 119.623 1213.804 114.036 1209.605 108.826 1204.903 C 78.814 1177.821 73.618 1139.651 95.616 1105.63 C 107.625 1087.058 123.81 1074.205 146.394 1071.125 C 159.459 1069.343 171.451 1072.756 182.711 1079.37 C 185.184 1080.822 184.917 1082.246 183.702 1084.185 C 181.549 1087.623 178.242 1089.422 174.575 1090.777 C 167.971 1093.218 160.996 1094.038 154.172 1095.496 C 131.966 1100.24 125.05 1111.9 131.654 1133.674 C 137.204 1151.975 152.556 1160.819 173.62 1158.179 C 197.769 1155.152 219.158 1144.96 239.946 1133.118 C 263.716 1119.577 283.858 1101.276 304.597 1083.762 C 326.378 1065.367 348.308 1047.179 373.86 1034.046 C 395.444 1022.953 418.156 1016.842 442.639 1018.543 C 463.31 1019.979 482.344 1026.687 500.219 1036.782 C 504.285 1039.079 507.227 1039.321 511.501 1037.12 C 539.201 1022.852 568.436 1015.833 599.774 1019.597 C 623.986 1022.504 646.117 1031.323 667.164 1043.219 C 693.676 1058.205 717.222 1077.334 741.074 1096.055 C 759.026 1110.145 777.113 1124.07 795.39 1137.735 C 806.63 1146.138 818.734 1153.139 832.408 1157.014 C 851.207 1162.341 867.728 1158.208 881.672 1144.673 C 887.574 1138.944 894.119 1133.367 895.751 1124.609 C 898.239 1111.262 892.932 1102.686 879.945 1098.698 C 871.636 1096.146 862.938 1095.539 854.501 1093.625 C 850.919 1092.813 847.473 1091.664 844.1 1090.185 C 840.874 1088.771 840.472 1087.199 842.463 1084.177 C 850.94 1071.316 865.165 1066.405 881.623 1070.935 C 911.593 1079.184 940.823 1114.151 942.715 1145.173 C 943.95 1165.409 936.63 1183.074 923.307 1198.215 C 908.178 1215.408 888.814 1226.276 867.888 1234.657 C 838.276 1246.517 807.278 1252.384 775.691 1255.598 C 757.268 1257.473 738.791 1258.079 720.274 1257.872 Z"/>
  </g>
  <g transform="matrix(0.21273, 0, 0, 0.21273, 207.362762, 121.972046)" style="">
    <g stroke="#000">
      <path d="m344.18 140.49c-29.26 0.19601-57.457 9.342-86.177 12.999-11.987 1.527-24.341 1.901-36.348 0.482-15.964-1.888-31.42-6.901-47.374-9.148-14.257-2.007-28.693-4.104-43.04-4.188-25.072-0.148-49.321 7.702-73.9 11.94 0 7.19-1.461 16.418 2.214 21.472 3.791 5.212 10.185 9.979 11.844 17.042 3.933 16.752 9.517 33.172 16.657 48.914 3.47 7.65 10.019 12.984 17.332 16.658 17.61 8.847 38.453 10.148 57.772 7.366 27.512-3.962 42.438-24.605 53.825-48.192 4.262-9.588 4.738-20.653 10.351-29.416 3.334-5.204 11.076-3.014 16.609-3.033 5.533-0.018997 10.223 9.184 11.94 15.31 6.077 21.679 16.21 44.68 36.348 56.039 30.073 16.963 77.45 13.79 96.962-16.802 7.636-11.973 9.745-26.5 13.576-40.055 2.332-8.253 4.416-18.091 12.71-22.628 3.347-1.831 0.99799-9.137 1.492-13.384 0.539-4.627 1.577-8.72-5.007-9.628-11.483-1.586-22.622-6.408-34.374-8.04-11.137-1.547-22.049-3.783-33.412-3.708zm-193.44 7.703c8.306-0.052002 16.577 0.556 24.65 2.263 48.1 10.174 49.073 29.992 29.271 70.964-16.135 33.386-49.56 41.751-83.24 33.748-15.526-3.688-26.142-14.526-31.149-29.367-5.285-15.664-9.282-32.306-8.377-48.77 1.212-22.046 26.148-25.144 44.003-27.153 8.193-0.92099 16.537-1.632 24.842-1.685zm175.63 0c8.306 0.053009 16.649 0.76401 24.842 1.685 17.855 2.009 42.792 5.107 44.003 27.153 0.905 16.464-3.092 33.106-8.377 48.77-5.007 14.841-15.623 25.679-31.149 29.367-33.679 8.003-67.104-0.362-83.24-33.748-19.802-40.972-18.829-60.79 29.272-70.964 8.073-1.707 16.343-2.315 24.649-2.263z"/>
      <path d="m125.89 149.89c16.386-1.843 33.343-2.84 49.489 0.575 48.1 10.174 49.07 29.994 29.269 70.966-16.136 33.386-49.543 41.753-83.223 33.751-15.526-3.689-26.148-14.565-31.155-29.406-5.285-15.664-9.304-32.297-8.399-48.76 1.211-22.047 26.164-25.118 44.019-27.126z" opacity=".85"/>
      <path d="m351.2 149.89c-16.387-1.843-33.343-2.84-49.49 0.575-48.1 10.174-49.07 29.994-29.268 70.966 16.135 33.386 49.543 41.753 83.222 33.751 15.526-3.689 26.149-14.565 31.156-29.406 5.284-15.664 9.304-32.297 8.399-48.76-1.212-22.047-26.164-25.118-44.019-27.126z" opacity=".85"/>
    </g>
  </g>
</svg>