<svg viewBox="0 0 400 400"
  xmlns="http://www.w3.org/2000/svg">
  <style>
    .favicon-stroke {
      stroke-width: 8px;
      stroke: #8929ff;
    }
    #skull-outline { fill: white }
    #eyes-and-nose, #hat-outline { fill: #8929ff }
    #hat-fill, #hat-bill { fill: #e662e6 }
    #outer-ring, #inner-outline {
      fill: black;
    }
    #bolt {
      stroke: black;
    }

    @media (prefers-color-scheme: dark) {
      .favicon-stroke { stroke: #343a40 }
      #skull-outline { fill: #adb5bd }
      #hat-outline { fill: #343a40 }
      #eyes-and-nose { fill: #343a40 }

      #outer-ring, #inner-outline {
        fill: #424040;
        stroke-width: 1px;
        stroke: #424040;
      }
      #bolt {
        <!-- stroke-width: 1px; -->
        stroke: white;
      }
    }
  </style>
  <g>
    <path id="outer-ring" d="M73.497 297.25c-21.866-28.24-33.424-62.097-33.424-97.908 0-88.264 71.808-160.073 160.073-160.073 20.773 0 40.979 3.918 60.057 11.645 4.3 1.742 9.183-.277 11.024-4.509.029-.067.065-.13.092-.199a8.536 8.536 0 0 0-4.708-11.116c-21.123-8.556-43.485-12.894-66.465-12.894C102.467 22.196 23 101.664 23 199.342c0 39.63 12.794 77.1 36.999 108.361a8.522 8.522 0 0 0 6.755 3.31 8.499 8.499 0 0 0 5.22-1.787c.06-.046.112-.098.17-.145 3.572-2.916 4.194-8.162 1.353-11.83zM340.297 90.986a8.536 8.536 0 0 0-11.976-1.525c-.06.046-.112.1-.17.147-3.572 2.917-4.194 8.162-1.354 11.83 21.864 28.24 33.421 62.095 33.421 97.904 0 88.264-71.808 160.072-160.072 160.072-20.772 0-40.976-3.917-60.052-11.643-4.298-1.74-9.176.275-11.02 4.5-.03.07-.067.137-.096.208a8.536 8.536 0 0 0 4.708 11.117c21.122 8.554 43.483 12.892 66.46 12.892 97.68 0 177.146-79.468 177.146-177.146 0-39.627-12.793-77.096-36.995-108.356z"/>
    <path id="bolt" style="paint-order:fill;fill-rule:nonzero;fill:#f89524" d="M89.868 405.463 317.79 240h-61.46a10.002 10.002 0 0 1-8.12-15.837L370.132 54.537 142.21 220h61.46a10.002 10.002 0 0 1 8.12 15.837L89.868 405.463z" transform="translate(3.804 3) scale(.85366)"/>
    <path id="inner-outline" d="M309.498 196.706a8.537 8.537 0 0 0-8.12-5.9h-62.106l79.775-110.99 45.496-63.297a8.536 8.536 0 0 0-11.947-11.89l-67.537 49.029L93.9 192.434a8.536 8.536 0 0 0 5.014 15.445h62.107L81.238 318.877l-45.49 63.288a8.536 8.536 0 0 0 11.947 11.89l67.535-49.028L306.393 206.25a8.535 8.535 0 0 0 3.105-9.544zm-124.233-1.258a8.536 8.536 0 0 0-7.596-4.643h-52.466L319.77 49.556 215.691 194.36a8.536 8.536 0 0 0 6.932 13.52h52.466L80.52 349.127 184.6 204.325a8.535 8.535 0 0 0 .664-8.877z"/>
  </g>
</svg>
